<svg width="61" height="60" viewBox="0 0 61 60" fill="none" xmlns="http://www.w3.org/2000/svg">
<g id="Frame 334949">
<rect x="0.5" width="60" height="60" rx="15" fill="white"/>
<path id="Vector 6" d="M17.5 39.4542H21.3361L28.1557 45L43.5 38.601L40.9426 33.0552L33.6967 34.6318M17.5 29.2158H24.3197L31.1393 35.1882L33.6967 34.6318M25.1721 35.6148L29.0082 38.601L33.6967 34.6318M40.9426 18.5508C40.9426 20.6015 39.6997 23.6049 33.2705 27.5094C33.2705 27.5094 25.3573 21.9785 25.1721 18.5508C24.987 15.123 27.5 13.2036 30.0574 13.6302C32.6148 14.0569 33.2705 15.5 33.2705 15.5C33.2705 15.5 33.9672 14 36.5 14C39.0328 14 40.9426 16.5 40.9426 18.5508Z" stroke="#DD0A34" stroke-width="3"/>
</g>
</svg>
