<svg width="61" height="60" viewBox="0 0 61 60" fill="none" xmlns="http://www.w3.org/2000/svg">
<g id="Frame 334945">
<rect x="0.5" width="60" height="60" rx="15" fill="white"/>
<path id="Vector 11" d="M36.1429 20.4884L35.157 21.6189L35.5807 21.9884H36.1429V20.4884ZM41.8571 34.4419L40.3575 34.4726L40.3875 35.9419H41.8571V34.4419ZM40.1429 32.6977L41.2126 33.7491L42.1296 32.8162L41.3301 31.7809L40.1429 32.6977ZM33.8571 24.5581L35.0443 23.6413L34.3573 22.7517L33.3105 23.1613L33.8571 24.5581ZM37.6212 35.0233L36.6831 33.8528L37.6212 35.0233ZM30.3195 33.9364C29.7193 33.3655 28.7698 33.3892 28.1989 33.9894C27.6279 34.5897 27.6516 35.5391 28.2519 36.1101L30.3195 33.9364ZM34.4048 30.536C33.8531 29.918 32.9049 29.8642 32.2869 30.4158C31.6688 30.9675 31.615 31.9157 32.1666 32.5337L34.4048 30.536ZM36.9182 35.6047L37.8873 36.7496L36.9182 35.6047ZM29.1947 41.5507L30.0367 40.3093L29.1947 41.5507ZM30.4412 41.4531L31.465 42.5494L30.4412 41.4531ZM27.0434 27.2245L26.4968 25.8277L27.0434 27.2245ZM25.9658 26.9943L24.896 28.0457L25.9658 26.9943ZM24.2604 25.2591L25.3302 24.2077L24.2604 25.2591ZM24.2604 23.8572L25.3302 24.9086L24.2604 23.8572ZM31.494 17.4951L32.404 18.6876L31.494 17.4951ZM32.7579 17.5364L31.7721 18.6669L32.7579 17.5364ZM28.4814 21.6808L32.404 18.6876L30.5841 16.3026L26.6615 19.2959L28.4814 21.6808ZM31.7721 18.6669L35.157 21.6189L37.1288 19.3579L33.7438 16.4059L31.7721 18.6669ZM36.1429 21.9884H41.5714V18.9884H36.1429V21.9884ZM41.5714 21.9884H47V18.9884H41.5714V21.9884ZM40.0717 20.5191L40.3575 34.4726L43.3568 34.4112L43.0711 20.4577L40.0717 20.5191ZM41.8571 35.9419H47V32.9419H41.8571V35.9419ZM47 32.9419H38.4286V35.9419H47V32.9419ZM39.4984 35.4933L41.2126 33.7491L39.0731 31.6462L37.3588 33.3904L39.4984 35.4933ZM41.3301 31.7809L35.0443 23.6413L32.6699 25.475L38.9557 33.6145L41.3301 31.7809ZM33.3105 23.1613L26.4968 25.8277L27.59 28.6214L34.4038 25.955L33.3105 23.1613ZM27.0356 25.9428L25.3302 24.2077L23.1906 26.3106L24.896 28.0457L27.0356 25.9428ZM25.3302 24.9086L28.6412 21.5398L26.5016 19.4369L23.1906 22.8057L25.3302 24.9086ZM30.0367 40.3093L20.4134 33.7819L18.7294 36.2646L28.3527 42.792L30.0367 40.3093ZM15 21.9884H19.5714V18.9884H15V21.9884ZM19.5714 21.9884H27.5714V18.9884H19.5714V21.9884ZM21.0714 35.0233V20.4884H18.0714V35.0233H21.0714ZM19.5714 33.5233H15V36.5233H19.5714V33.5233ZM37.7484 33.1049C37.4306 33.2666 37.0298 33.5749 36.6831 33.8528L38.5594 36.1937C38.734 36.0537 38.8756 35.945 38.9839 35.8667C39.0379 35.8277 39.0774 35.8007 39.1043 35.7833C39.1345 35.7637 39.1334 35.7662 39.1087 35.7788L37.7484 33.1049ZM32.2752 37.7196C31.2508 38.6535 30.2418 39.5871 29.4175 40.3567L31.465 42.5494C32.2819 41.7866 33.282 40.8612 34.2962 39.9367L32.2752 37.7196ZM28.2519 36.1101L32.2519 39.915L34.3195 37.7413L30.3195 33.9364L28.2519 36.1101ZM36.6831 33.8528C36.4615 34.0304 36.2144 34.2352 35.9492 34.4597L37.8873 36.7496C38.1392 36.5364 38.3648 36.3496 38.5594 36.1937L36.6831 33.8528ZM35.9492 34.4597C34.9288 35.3233 33.5831 36.5274 32.2752 37.7196L34.2962 39.9367C35.598 38.7501 36.9105 37.5763 37.8873 36.7496L35.9492 34.4597ZM32.1666 32.5337L35.7992 36.6035L38.0373 34.6058L34.4048 30.536L32.1666 32.5337ZM28.3527 42.792C29.3211 43.4489 30.6126 43.3453 31.465 42.5494L29.4175 40.3567C29.5859 40.1995 29.8428 40.1777 30.0367 40.3093L28.3527 42.792ZM26.4968 25.8277C26.6832 25.7547 26.8952 25.8 27.0356 25.9428L24.896 28.0457C25.5977 28.7597 26.6577 28.9862 27.59 28.6214L26.4968 25.8277ZM25.3302 24.2077C25.5214 24.4022 25.5214 24.7141 25.3302 24.9086L23.1906 22.8057C22.2346 23.7784 22.2346 25.3379 23.1906 26.3106L25.3302 24.2077ZM32.404 18.6876C32.2152 18.8316 31.9511 18.823 31.7721 18.6669L33.7438 16.4059C32.8488 15.6254 31.5282 15.5822 30.5841 16.3026L32.404 18.6876Z" fill="#DD0A34"/>
</g>
</svg>
