<svg width="61" height="60" viewBox="0 0 61 60" fill="none" xmlns="http://www.w3.org/2000/svg">
<g id="Frame 334948">
<rect x="0.5" width="60" height="60" rx="15" fill="white"/>
<g id="Group 153">
<path id="Vector 12" d="M39.1538 16H20.3077V44H39.1538V35.3846M16 24.6154H24.6154M16 35.3846H24.6154" stroke="#DD0A34" stroke-width="3"/>
<g id="&#208;&#176;-&#209;&#143;">
<path d="M35.2912 27.3077H33.7903L33.4009 26.2192H31.314L30.9246 27.3077H29.4615L31.5408 21.9231H33.2119L35.2912 27.3077ZM33.0493 25.232L32.3575 23.3009L31.6656 25.232H33.0493Z" fill="#DD0A34"/>
<path d="M38.6823 25.4345H35.7978V24.393H38.6823V25.4345Z" fill="#DD0A34"/>
<path d="M44.5385 27.3077H43.0943V25.3332H42.3041L40.8864 27.3077H39.1663L40.8486 25.0765C40.5084 24.9366 40.2412 24.739 40.0471 24.4834C39.8556 24.2279 39.7598 23.8928 39.7598 23.4781C39.7598 23.2033 39.8228 22.9634 39.9488 22.7585C40.0774 22.5535 40.2399 22.386 40.4365 22.2558C40.6079 22.1425 40.8159 22.0593 41.0603 22.0063C41.3073 21.9508 41.5896 21.9231 41.9072 21.9231H44.5385V27.3077ZM43.0943 24.3641V22.914H42.376C42.1567 22.914 41.9878 22.9212 41.8694 22.9356C41.7509 22.9477 41.6362 22.9935 41.5253 23.0731C41.4396 23.1333 41.3741 23.2129 41.3288 23.3117C41.2834 23.4082 41.2607 23.5155 41.2607 23.6336C41.2607 23.7565 41.2846 23.8674 41.3325 23.9663C41.3804 24.0627 41.4472 24.1423 41.5329 24.205C41.6287 24.2773 41.7408 24.3219 41.8694 24.3388C42.0004 24.3556 42.1718 24.3641 42.3835 24.3641H43.0943Z" fill="#DD0A34"/>
</g>
</g>
</g>
</svg>
